<svg fill="none" height="52" viewBox="0 0 41 52" width="41" xmlns="http://www.w3.org/2000/svg"><path d="m20.5 0c-11.32215 0-20.5 9.17785-20.5 20.5 0 5.659 2.29293 10.783 6.00138 14.4925 3.70947 3.7115 12.44862 9.0825 12.96112 14.72.0768.8453.6888 1.5375 1.5375 1.5375s1.4607-.6922 1.5375-1.5375c.5125-5.6375 9.2516-11.0085 12.9611-14.72 3.7085-3.7095 6.0014-8.8335 6.0014-14.4925 0-11.32215-9.1778-20.5-20.5-20.5z" fill="#f43"/><path d="m20.5001 27.6755c3.9626 0 7.1749-3.2124 7.1749-7.175s-3.2123-7.175-7.1749-7.175c-3.9627 0-7.175 3.2124-7.175 7.175s3.2123 7.175 7.175 7.175z" fill="#fff"/></svg>