<svg version="1.1" xmlns="http://www.w3.org/2000/svg" xmlns:xlink="http://www.w3.org/1999/xlink" viewBox="0 0 32 32">
    <g id="Android" stroke="none" stroke-width="1" fill="none" fill-rule="evenodd">
        <g id="Android/Android/48" transform="translate(-8.000000, -8.000000)">
            <g id="Group" transform="translate(8.000000, 8.000000)">
                <circle id="Oval" fill="#000000" cx="20.9372882" cy="11.0627118" r="10.2106391"></circle>
                <path d="M26.3802124,11.6155537 C26.0740363,10.8504624 25.4827569,10.251749 24.6602959,9.86827555 C24.7954101,9.21451518 24.8406547,8.68445592 24.8549099,8.33747431 L23.43993,8.33747431 C23.4262946,8.60095767 23.3903468,8.99123467 23.2961388,9.47243199 C22.1922933,9.31223906 20.9483754,9.46748395 19.7565198,9.9078599 C19.623265,9.11369877 19.5414527,8.37767717 19.4955883,7.7239168 C23.7386686,7.47775159 26.2426191,6.44732134 26.3585197,6.3978409 L25.8143444,5.0828981 C25.7883132,5.0940312 23.4182374,6.06137388 19.440427,6.29888001 C19.4354687,5.3173117 19.5017862,4.71983534 19.5055049,4.68705455 L18.0849469,4.68705455 C18.0601553,4.96352653 18.0186294,5.54121071 18.0242075,6.34959747 C17.9802025,6.35021597 17.9386766,6.35207149 17.8934319,6.35268999 C16.6253422,6.35578252 15.4465022,6.25744014 15.1688364,6.23208141 L15.1688364,7.66392176 C15.5847153,7.70041359 16.590634,7.77834529 17.7353855,7.77834529 C17.7905468,7.77834529 17.8469477,7.77772678 17.9039683,7.77772678 C17.9640879,7.77710828 18.019869,7.77463426 18.0799886,7.77401575 C18.1357697,8.58735055 18.2429933,9.51881991 18.4307896,10.535643 C16.5528268,11.6607046 15.0622325,13.8446477 15.8214749,15.6203772 C16.1406666,16.3656764 16.7561178,16.8437811 17.5556465,16.9656267 C17.6895211,16.9866559 17.8277342,16.996552 17.9702858,16.996552 C18.7784916,16.996552 19.705697,16.6662701 20.5907567,16.104667 C21.1702601,16.9736673 21.6369617,17.4307429 21.6791074,17.4703273 L22.6509377,16.4355675 C22.6416409,16.4269084 22.2313401,16.0242613 21.7144355,15.2338112 C21.945617,15.0198083 22.1706007,14.7946723 22.37885,14.5497441 C23.319071,13.4432376 23.9041525,12.2940543 24.2685888,11.2679536 C24.5877805,11.4535053 24.9026337,11.7324513 25.0687374,12.1487055 C25.6346054,13.5632277 24.8171027,15.1997934 24.056001,15.9098378 L25.0160552,16.9557307 C26.2822856,15.7743851 27.1580485,13.5607537 26.3802124,11.6155537 M17.7669948,15.5572896 C17.4465635,15.5078092 17.2463715,15.3531828 17.1193146,15.0556816 C16.7697532,14.2373988 17.5283758,12.9032823 18.7642365,12.0132528 C19.0735115,13.146355 19.4695571,14.1050386 19.8724205,14.8831186 C19.1168968,15.375449 18.344019,15.6432619 17.7669948,15.5572896 M21.3053743,13.6226042 C21.2062079,13.7388833 21.1002239,13.8477403 20.9942398,13.9565972 C20.6428191,13.2360383 20.3031743,12.3596159 20.044722,11.3230006 C20.8355737,11.0013777 21.6505971,10.8306702 22.4061208,10.8306702 C22.5778025,10.8306702 22.7463853,10.8393293 22.9112494,10.8572659 C22.5957764,11.7231737 22.0962259,12.6917534 21.3053743,13.6226042" id="Fill-4" fill="#FFFFFF"></path>
                <circle id="Oval" fill="#FF3333" cx="10.6787118" cy="21.3212882" r="10.2106391"></circle>
                <path d="M9.93219072,14.9141705 L5.19788339,26.4186182 L7.13540909,26.4186182 L8.29954222,23.3580244 L13.0879808,23.3580244 L14.2521139,26.4186182 L16.1890174,26.4186182 L11.4547101,14.9141705 L9.93219072,14.9141705 Z M10.6937615,17.287235 L12.4570717,21.7931956 L8.92982916,21.7931956 L10.6937615,17.287235 Z" id="Page-1" fill="#FFFFFF"></path>
            </g>
        </g>
    </g>
</svg>
