<svg width="63" height="12" viewBox="0 0 63 12" fill="none" xmlns="http://www.w3.org/2000/svg">
<g clip-path="url(#clip0)">
<path opacity="0.8" fill-rule="evenodd" clip-rule="evenodd" d="M19.5884 0.0255531C22.1942 0.0255531 25.218 1.95534 25.218 6.03747L25.1934 6.65599H16.2942C16.4417 8.5611 17.8184 9.72386 19.49 9.72386C20.9405 9.72386 21.8992 8.88274 22.4155 7.8436L25.0611 7.85015C25.0611 7.9032 24.9794 8.45631 24.684 8.99049C23.6712 10.8995 21.7393 12 19.613 12C15.9009 12 13.4425 9.27849 13.4425 6.01285C13.4425 2.77179 15.9254 0.0255531 19.5884 0.0255531ZM32.5191 0.0255531C35.1249 0.0255531 38.1488 1.95534 38.1488 6.03747L38.1242 6.65599H29.2249C29.3724 8.5611 30.7491 9.72386 32.4207 9.72386C33.8712 9.72386 34.8299 8.88274 35.3462 7.8436L37.9918 7.85015C37.9918 7.9032 37.91 8.45631 37.6147 8.99049C36.6019 10.8995 34.67 12 32.5436 12C28.8315 12 26.3732 9.27849 26.3732 6.01285C26.3732 2.77179 28.8561 0.0255531 32.5191 0.0255531ZM55.8458 0.000513995C57.1977 0.0182192 58.763 0.585648 59.7299 1.86013L59.7354 0.394778L62.1792 0.401687V7.21364H62.1828C62.1828 7.21364 62.1777 8.1261 62.1744 9.16594C62.1753 9.16594 62.176 9.16603 62.1768 9.16603V11.8816L61.4982 11.8783C60.4329 11.8783 59.6524 11.3106 59.4126 10.4061C58.4088 11.4561 56.9428 11.9902 55.6914 11.9739C52.3975 11.9309 50.0475 9.22809 50.0902 5.9131C50.1327 2.62289 52.5519 -0.0425253 55.8458 0.000513995ZM7.30136 0.0598407C10.276 0.0598407 12.2426 2.21231 12.2426 5.25537V11.6632H9.4402V5.55233C9.4402 3.6473 8.43224 2.435 6.63763 2.435C5.10125 2.435 3.4328 3.71898 3.4328 5.32418C3.43848 5.47539 3.39443 11.4183 3.39267 11.6559L3.39261 11.6632H0.590063L0.583984 0.421861L1.26267 0.425171C2.26989 0.425171 3.02223 0.975257 3.30829 1.79207C4.36586 0.740625 5.72194 0.0598407 7.30136 0.0598407ZM40.7923 0.396714L44.1595 7.86829L47.5513 0.396714H50.6243L45.2412 11.6289H43.1024L37.7194 0.396714H40.7923ZM56.233 2.38085C54.2419 2.35487 52.9427 3.97093 52.9171 5.9501C52.8913 7.95381 54.1487 9.57857 56.1399 9.60454C58.0817 9.63 59.3805 8.06334 59.4067 6.03481C59.4325 4.03095 58.1749 2.40626 56.233 2.38085ZM19.5146 2.15327C17.8675 2.15327 16.6629 3.31605 16.4662 4.80048H22.3909C22.2188 3.24184 21.088 2.15327 19.5146 2.15327ZM32.4454 2.15327C30.7983 2.15327 29.5936 3.31605 29.397 4.80048H35.3216C35.1495 3.24184 34.0187 2.15327 32.4454 2.15327Z" fill="#191919"/>
</g>
<defs>
<clipPath id="clip0">
<path d="M0.583984 0H62.2699V12H0.583984V0Z" fill="white"/>
</clipPath>
</defs>
</svg>
