<svg width="39" height="39" viewBox="0 0 39 39" fill="none" xmlns="http://www.w3.org/2000/svg">
<g clip-path="url(#clip0)">
<path d="M23.1515 3.19946C23.1515 3.47421 23.1332 3.74897 23.1149 4.0054C22.8918 7.63469 21.7441 11.1471 19.7812 14.2078V14.2994C23.2576 14.3003 26.1179 17.1607 26.1189 20.637V35.8766H38.0724V21.1682C38.0572 12.4055 31.7557 4.8205 23.1442 3.19946" fill="#415AFF"/>
<path d="M0.126477 20.7836C0.108161 21.095 0.0898438 21.4063 0.0898438 21.7177C10.7868 22.3588 19.9452 14.3727 20.5863 3.85888C20.6046 3.54749 20.623 3.23611 20.623 2.92472C9.94427 2.28363 0.767565 10.2697 0.126477 20.7836Z" fill="#78D8AE"/>
<path d="M0.56543 17.7253C6.15205 16.7362 12.105 11.3144 11.1342 6.69857C11.0029 6.11737 10.7933 5.5567 10.5114 5.03174C5.48843 7.58656 1.84449 12.237 0.56543 17.7253Z" fill="#ABEDCF"/>
<path d="M17.1428 13.6242C15.073 13.7707 12.9849 13.3311 10.1641 13.3494C6.24428 13.3678 3.35023 14.2103 1.37202 15.1078C0.665357 16.9247 0.24517 18.8403 0.126477 20.786C0.108161 21.0974 0.0898438 21.4088 0.0898438 21.7202C6.78518 22.1563 13.2483 19.0879 17.1428 13.6242Z" fill="#73A8FF"/>
<path d="M12.0321 23.9343H0.0712891V35.8952H12.0321V23.9343Z" fill="#415AFF"/>
</g>
<defs>
<clipPath id="clip0">
<path d="M0.0712891 0.589111H38.0713V38.5891H0.0712891V0.589111Z" fill="white"/>
</clipPath>
</defs>
</svg>
